 <svg
      xmlns="http://www.w3.org/2000/svg"
      width="50"
      height="56.256"
      viewBox="0 0 50 56.256"
    >
        <path
          fill="#fff"
          d="M77.154 60v2.977H64.846V60H61v22.429h20V60zM65.615 79.71l-2.082-2.01 1.088-1.053.994.963 2.533-2.451 1.088 1.053zm0-4.466l-2.083-2.015 1.088-1.053.994.963 2.533-2.451 1.088 1.053zm0-4.466l-2.083-2.015 1.088-1.053.994.963 2.533-2.451 1.088 1.053zm12.308 7.135h-7.692v-1.489h7.692zm0-4.466h-7.692v-1.488h7.692zm0-4.466h-7.692v-1.488h7.692z"
          data-name="Path 5289"
          transform="translate(-46 -44.17)"
        ></path>
        <path
          fill="#fff"
          d="M173.656 1.914a1.914 1.914 0 10-3.828 0H166v3.828h11.484V1.914z"
          data-name="Path 5290"
          transform="translate(-146.74 12)"
        ></path>
    </svg>