 <svg
      xmlns="http://www.w3.org/2000/svg"
      width="52.362"
      height="52.363"
      viewBox="0 0 52.362 52.363"
    >
        <path
          fill="#fff"
          d="M21.905 19.567h-.466v-1.4a.466.466 0 00-.466-.466h-1.4V9.318h.466a.466.466 0 00.466-.466v-1.4h1.4a.467.467 0 00.235-.869L10.959.063a.469.469 0 00-.485.009L.224 6.595a.467.467 0 00.251.86h1.4v1.4a.466.466 0 00.466.466H2.8V17.7H1.4a.466.466 0 00-.466.466v1.4H.475a.466.466 0 00-.466.466V21.9a.466.466 0 00.466.466h21.43a.466.466 0 00.466-.466v-1.867a.466.466 0 00-.466-.466zM7.463 17.7H5.6V9.318h1.863zm4.659 0h-1.864V9.318h1.864zm4.659 0h-1.864V9.318h1.863zm.207-11.181l-6.253-3.644L5 6.523H3.267l7.207-4.586a.465.465 0 01.484-.009l7.878 4.6h-1.849z"
          data-name="monument icon"
          transform="translate(14.99 12)"
        ></path>
    </svg>