<svg xmlns="http://www.w3.org/2000/svg" width="183.767" height="162.531" viewBox="0 0 183.767 162.531">
  <path id="Union_24" data-name="Union 24" d="M157.9,162.531a2.693,2.693,0,0,1,0-5.387h19.585a.9.9,0,0,0,.895-.895V52.533a.9.9,0,0,0-.895-.895H143.895L119.512,78.779a5.331,5.331,0,0,1-3.689,1.768c-.1,0-.192,0-.289,0-.071,0-.138,0-.2-.008l-10.664,5.3a4.284,4.284,0,0,1-5.921-5.324l4.128-11.156c-.025-.168-.042-.334-.054-.5a5.33,5.33,0,0,1,1.362-3.857L116.19,51.639H69.611a2.692,2.692,0,0,1,0-5.385h51.414l29.543-32.887a5.348,5.348,0,0,1,7.542-.4l7.388,6.631a5.345,5.345,0,0,1,.4,7.547l-17.17,19.113h28.757a6.289,6.289,0,0,1,6.281,6.279V156.25a6.289,6.289,0,0,1-6.281,6.281ZM104.758,79.787l5.073-2.525-3.109-2.791Zm9.118-6.127,1.659,1.492,39.538-44.018-1.659-1.488Zm-5.662-5.084,1.659,1.486L149.41,26.049l-1.659-1.486Zm43.136-48.021,7.321,6.576,3.2-3.559-7.321-6.578ZM25.1,162.531A25.134,25.134,0,0,1,0,137.426V25.105A25.132,25.132,0,0,1,25.1,0h5.532a6.287,6.287,0,0,1,6.281,6.281v18.9a2.691,2.691,0,1,1-5.382,0V6.281a.9.9,0,0,0-.9-.9H25.1A19.742,19.742,0,0,0,5.382,25.105v95.381A25.058,25.058,0,0,1,25.1,110.9h5.532a.9.9,0,0,0,.9-.9v-73.1a2.691,2.691,0,1,1,5.382,0v9.348H57.886a2.692,2.692,0,1,1,0,5.385H36.914V110a6.287,6.287,0,0,1-6.281,6.281H25.1A19.741,19.741,0,0,0,5.382,136v1.424A19.741,19.741,0,0,0,25.1,157.145H146.18a2.693,2.693,0,0,1,0,5.387Zm59.666-18.875a2.69,2.69,0,0,1-2.691-2.7v-7.416a2.689,2.689,0,0,1,2.691-2.691h7.417a2.689,2.689,0,0,1,2.691,2.691v7.416a2.69,2.69,0,0,1-2.691,2.7Zm2.691-5.387h2.035V136.24H87.458Zm-20.492,5.387a2.692,2.692,0,0,1-2.691-2.691v-7.416a2.692,2.692,0,0,1,2.691-2.691h7.421a2.692,2.692,0,0,1,2.691,2.691v7.416a2.692,2.692,0,0,1-2.691,2.691Zm2.7-5.387h2.031V136.24H69.662ZM49.17,143.656a2.689,2.689,0,0,1-2.691-2.691v-7.416a2.689,2.689,0,0,1,2.691-2.691h7.417a2.693,2.693,0,0,1,2.695,2.691v7.416a2.693,2.693,0,0,1-2.695,2.691Zm2.691-5.387H53.9V136.24H51.861Zm101.778-8.006a2.693,2.693,0,1,1,0-5.387h5.988a2.693,2.693,0,0,1,0,5.387Zm-43.052,0a2.689,2.689,0,0,1-2.691-2.691V96.822a2.69,2.69,0,0,1,2.691-2.691H122.98a20.7,20.7,0,1,1,21.048,21.93v11.512a2.689,2.689,0,0,1-2.691,2.691Zm2.691-5.387h25.369v-9.418a20.752,20.752,0,0,1-15.29-15.945H113.278Zm15.1-30.746h12.962a2.69,2.69,0,0,1,2.691,2.691V110.68a15.313,15.313,0,1,0-15.653-16.549Zm10.271,15.721V99.514h-9.753A15.392,15.392,0,0,0,138.646,109.852Zm-53.879,14.9a2.689,2.689,0,0,1-2.691-2.691v-7.416a2.689,2.689,0,0,1,2.691-2.691h7.417a2.689,2.689,0,0,1,2.691,2.691v7.416a2.689,2.689,0,0,1-2.691,2.691Zm2.691-5.381h2.035V117.34H87.458Zm-20.492,5.381a2.692,2.692,0,0,1-2.691-2.691v-7.416a2.692,2.692,0,0,1,2.691-2.691h7.421a2.692,2.692,0,0,1,2.691,2.691v7.416a2.692,2.692,0,0,1-2.691,2.691Zm2.7-5.381h2.031V117.34H69.662ZM49.17,124.752a2.689,2.689,0,0,1-2.691-2.691v-7.416a2.689,2.689,0,0,1,2.691-2.691h7.417a2.693,2.693,0,0,1,2.695,2.691v7.416a2.693,2.693,0,0,1-2.695,2.691Zm2.691-5.381H53.9V117.34H51.861Zm101.778,3.943a2.69,2.69,0,1,1,0-5.381h5.988a2.69,2.69,0,1,1,0,5.381ZM49.17,104.795a2.692,2.692,0,0,1,0-5.385H86.422a2.692,2.692,0,0,1,0,5.385Zm0-7.785a2.69,2.69,0,1,1,0-5.381H82.114a2.69,2.69,0,1,1,0,5.381Zm0-7.779a2.693,2.693,0,0,1,0-5.387H69.95a2.693,2.693,0,0,1,0,5.387Zm0-7.785a2.693,2.693,0,0,1,0-5.387H69.95a2.693,2.693,0,0,1,0,5.387ZM82.114,73.6a2.692,2.692,0,0,1,0-5.385h4.308a2.692,2.692,0,0,1,0,5.385Zm-16.472,0a2.692,2.692,0,0,1,0-5.385H69.95a2.692,2.692,0,0,1,0,5.385Zm-16.472,0a2.692,2.692,0,0,1,0-5.385h4.308a2.692,2.692,0,0,1,0,5.385Z" fill="#ccd1e2"/>
</svg>
