<svg
      xmlns="http://www.w3.org/2000/svg"
      width="53.368"
      height="50.029"
      viewBox="0 0 53.368 50.029"
    >
        <path
          fill="#fff"
          d="M65.337 128a1.261 1.261 0 00-.926.392 1.405 1.405 0 00-.374.975v17.052a1.373 1.373 0 001.3 1.611h14.374a1.277 1.277 0 00.623-.172 1.394 1.394 0 00.489-.462l6.354-10.146a1.484 1.484 0 00.062-1.407 1.3 1.3 0 00-1.177-.736H71.693a1.277 1.277 0 00-.623.172 1.392 1.392 0 00-.489.462L67.6 140.5l2.108-7.227h13.38a.908.908 0 000-1.814H69.415a1.384 1.384 0 00-1.208.825.935.935 0 00-.053.139l-2.4 8.205v-10.815h14.48a.908.908 0 000-1.813zm6.57 8.915l-5.825 9.3H79.5l5.825-9.3zm2.02 1.138a1.277 1.277 0 00-.621.172 1.392 1.392 0 00-.489.462l-2.674 4.243a.931.931 0 00-.073.145 1.536 1.536 0 00.062 1.29 1.31 1.31 0 001.168.711h6.179a1.277 1.277 0 00.621-.172 1.392 1.392 0 00.489-.462l2.674-4.243a1.484 1.484 0 00.063-1.409 1.3 1.3 0 00-1.175-.738h-6.223zM72 143.266l.135-.217a2.643 2.643 0 011.065-.025 2.228 2.228 0 01.434.182l.114.057h.005zm1.582-2.01q-.141-.032-.284-.052l.843-1.337h5.264l-.561.888a2.838 2.838 0 00-.359-.225 2.207 2.207 0 00-1.127-.259 2.866 2.866 0 00-1.644.891c-.037.033-.067.063-.1.09-.377.342-.569.454-.826.446h-.03a.511.511 0 01-.28-.077 3.984 3.984 0 00-.9-.367zm4.134.9a1.205 1.205 0 01.175.115l-.628 1h-1.407a3.856 3.856 0 00.883-.638c.444-.4.584-.521.734-.547a.556.556 0 01.242.072zm-2.045-1.479c0 .334-.361.606-.806.606s-.806-.272-.806-.606.361-.606.806-.606.807.267.807.603z"
          data-name="Reference Images"
          transform="translate(-49.02 -116)"
        ></path>
    </svg>