<svg
    xmlns="http://www.w3.org/2000/svg"
    width="53.997"
    height="54.002"
    viewBox="0 0 53.997 54.002"
>
    <path
        fill="#fff"
        d="M13467.463 22387a1.958 1.958 0 01-1.961-1.955 1.865 1.865 0 01.314-1.057l5.265-8.557a1.96 1.96 0 013.349.016l5.275 8.574a1.839 1.839 0 01.293 1.023 1.958 1.958 0 01-1.961 1.955zm4.287-3a1 1 0 101-1 1 1 0 00-1 1zm0-4.5v2a1 1 0 002 0v-2a1 1 0 00-2 0zm-13 4.5a2.749 2.749 0 01-2.748-2.754v-15.5a2.749 2.749 0 012.748-2.752h11.5a2.75 2.75 0 012.753 2.752v6.76a1.878 1.878 0 00-.253-.012 3.921 3.921 0 00-3.371 1.889l-5.22 8.482a3.711 3.711 0 00-.511 1.131zm.253-8a1 1 0 001 1h5a1 1 0 000-2h-5a1 1 0 00-1.003 1zm0-4a1 1 0 001 1h9a1 1 0 000-2h-9a1 1 0 00-1.003 1zm0-4a1 1 0 001 1h4a1 1 0 000-2h-4a1 1 0 00-1.003 1z"
        data-name="Union 6"
        transform="translate(-13441 -22351)"
    ></path>
</svg>